<svg xmlns="http://www.w3.org/2000/svg" viewBox="0 0 151.5 188.5"><defs><style>.cls-1{fill:#f45d5d;}.cls-2{fill:#9ba0a4;}</style></defs><g id="圖層_2" data-name="圖層 2"><g id="圖層_1-2" data-name="圖層 1"><g id="logo_luna"><path class="cls-1" d="M75.75,129a29.75,29.75,0,1,0,29.74,29.74A29.74,29.74,0,0,0,75.75,129ZM72,174.51l-3.25-3.25-13-13,6.49-6.49L72,161.52,90.54,143l6.5,6.5Z"/><g id="logo_luna-2" data-name="logo_luna"><path class="cls-2" d="M6.56,36.06h5.59V1.61H6.56V.91H22.78v.7H17.19V36.06h9a8.9,8.9,0,0,0,7-2.77,17,17,0,0,0,3.68-7.56h.55v11H6.56Z"/><path class="cls-2" d="M40.61.91H56.82v.7H51.23V25.93a21.36,21.36,0,0,0,.53,5.12,8.46,8.46,0,0,0,1.59,3.37A5.84,5.84,0,0,0,56,36.26a10.62,10.62,0,0,0,3.57.55,13.78,13.78,0,0,0,5-.83A8.29,8.29,0,0,0,68.25,33a13.81,13.81,0,0,0,.89-1.31,7.59,7.59,0,0,0,.65-1.54,12.32,12.32,0,0,0,.43-2.12,25.72,25.72,0,0,0,.15-3V1.61H64.78V.91H76.71v.7H71.12V26a15.35,15.35,0,0,1-.45,3.85,10.34,10.34,0,0,1-1.86,3.6A9.64,9.64,0,0,1,65,36.41a15.46,15.46,0,0,1-6.39,1.11q-6,0-9.25-3T46.2,25.43V1.61H40.61Z"/><path class="cls-2" d="M78.83,36.06h5.59V1.61H78.83V.91H89.61l17,27.44h.1V1.61h-5.59V.91h11.93v.7h-5.59V37.47h-1L85.28,3.68h-.11V36.06h5.59v.7H78.83Z"/><path class="cls-2" d="M114.08,36.06h4.43L132.11,0h1.21L147,36.06h4.48v.7H136v-.7h5.59l-5.29-14H124.61l-5.29,14h5.59v.7H114.08ZM130.45,6.7l-5.54,14.65H136Z"/><path class="cls-2" d="M10.22,66.43h2.39V54H10.22v-.43h5v3.31h.06a10.81,10.81,0,0,1,.54-1,5.32,5.32,0,0,1,1-1.21,5.54,5.54,0,0,1,1.55-1,5.46,5.46,0,0,1,2.26-.42,5.32,5.32,0,0,1,3.33,1,3.72,3.72,0,0,1,1.28,3.16v9H27.6v.44H20.17v-.44h2.38v-10a3.28,3.28,0,0,0-.57-2,2.1,2.1,0,0,0-1.78-.77,4.22,4.22,0,0,0-1.89.43,4.87,4.87,0,0,0-1.58,1.21,5.55,5.55,0,0,0-1.07,1.83,6.55,6.55,0,0,0-.39,2.29v7h2.38v.44H10.22Z"/><path class="cls-2" d="M43.49,66.53a4.32,4.32,0,0,1-1,.54,3.61,3.61,0,0,1-1.36.23A3.05,3.05,0,0,1,39,66.67a3.4,3.4,0,0,1-.92-1.79H38c-.08.19-.2.42-.34.7a2.72,2.72,0,0,1-.67.81,3.79,3.79,0,0,1-1.19.65A5.85,5.85,0,0,1,34,67.3,6.08,6.08,0,0,1,31.88,67a3.41,3.41,0,0,1-1.21-.73,2.21,2.21,0,0,1-.58-1,4.16,4.16,0,0,1-.13-1,3.07,3.07,0,0,1,.43-1.74,3.23,3.23,0,0,1,1.13-1,7.49,7.49,0,0,1,1.55-.63c.57-.17,1.14-.34,1.72-.53s1.24-.42,1.69-.59a3.1,3.1,0,0,0,1-.6,2,2,0,0,0,.51-.9,6.28,6.28,0,0,0,.14-1.47,8.93,8.93,0,0,0-.1-1.34,2.68,2.68,0,0,0-.34-1,1.58,1.58,0,0,0-.71-.64,3,3,0,0,0-1.24-.21,3.56,3.56,0,0,0-1.69.35,1.23,1.23,0,0,0-.66,1.17,5.89,5.89,0,0,0,.09,1,4.92,4.92,0,0,1,.09.76,1,1,0,0,1-.31.73,1.24,1.24,0,0,1-.9.29c-.68,0-1.1-.12-1.27-.37a1.73,1.73,0,0,1-.25-1,3,3,0,0,1,.31-1.3,3.4,3.4,0,0,1,.92-1.1,4.6,4.6,0,0,1,1.52-.76,7,7,0,0,1,2.09-.28,6.81,6.81,0,0,1,2.38.36,4.18,4.18,0,0,1,1.55,1,3.48,3.48,0,0,1,.84,1.36,5.3,5.3,0,0,1,.25,1.6v7.71A1.84,1.84,0,0,0,41,66.37a1,1,0,0,0,.8.31,2.25,2.25,0,0,0,.71-.12,2.73,2.73,0,0,0,.72-.37Zm-5.42-7.25H38c0,.27-.38.53-1,.8L34.66,61a3.41,3.41,0,0,0-1.51,1.13A3,3,0,0,0,32.62,64a5.39,5.39,0,0,0,.09,1,2.52,2.52,0,0,0,.34.88,1.86,1.86,0,0,0,.7.63,2.35,2.35,0,0,0,1.16.25,2.7,2.7,0,0,0,2.62-1.52A4.37,4.37,0,0,0,38,63.75a8.7,8.7,0,0,0,.11-1.38Z"/><path class="cls-2" d="M43.8,53.58h2.39v-4l.46.15a3.13,3.13,0,0,0,.75.07,2.66,2.66,0,0,0,.8-.11,2,2,0,0,0,.65-.36v4.25h4.4V54h-4.4V64.14A4.56,4.56,0,0,0,49,65.55a2.21,2.21,0,0,0,.44.84,1.39,1.39,0,0,0,.61.38,2,2,0,0,0,.63.1,2.18,2.18,0,0,0,1.75-.79,3.85,3.85,0,0,0,.86-1.81l.43.15a7.48,7.48,0,0,1-.28.9,3,3,0,0,1-.57.94,3.14,3.14,0,0,1-1,.75,3.7,3.7,0,0,1-1.55.29,4.58,4.58,0,0,1-3.24-.9,3.39,3.39,0,0,1-.91-2.54V54H43.8Z"/><path class="cls-2" d="M72.15,66.87h-5V63.74H67.1A10.09,10.09,0,0,1,66.44,65a4.9,4.9,0,0,1-2.3,2,4.6,4.6,0,0,1-1.78.32,6,6,0,0,1-2-.28,4.7,4.7,0,0,1-1.21-.59c-.14-.1-.3-.23-.48-.38a2.19,2.19,0,0,1-.48-.64,4.43,4.43,0,0,1-.37-1,6.29,6.29,0,0,1-.16-1.56V54H55.27v-.43h5v9.51a8.49,8.49,0,0,0,.11,1.48,3.34,3.34,0,0,0,.41,1.2,2.3,2.3,0,0,0,.81.8,2.48,2.48,0,0,0,1.3.3,3,3,0,0,0,1.41-.4,4.61,4.61,0,0,0,1.33-1.15,6.51,6.51,0,0,0,1-1.78,6.38,6.38,0,0,0,.4-2.34V54H64.75v-.43h5V66.43h2.38Z"/><path class="cls-2" d="M73.42,66.43h2.39V54H73.42v-.43h5v3.13h.06a6.32,6.32,0,0,1,.41-1.06,4.45,4.45,0,0,1,.77-1.13,4.32,4.32,0,0,1,1.19-.91,3.54,3.54,0,0,1,1.69-.38,3,3,0,0,1,1.24.24,2.62,2.62,0,0,1,.87.59,2,2,0,0,1,.49.82,2.76,2.76,0,0,1,.16.93,1.61,1.61,0,0,1-.47,1.36,1.74,1.74,0,0,1-1.08.34c-.91,0-1.36-.29-1.36-.87a1.44,1.44,0,0,1,.06-.45c0-.11.09-.22.14-.34a2.49,2.49,0,0,0,.14-.39,2.39,2.39,0,0,0,.06-.61c0-.66-.36-1-1.08-1a1.93,1.93,0,0,0-1.06.38,3.85,3.85,0,0,0-1,1.08A7,7,0,0,0,78.8,57a7.4,7.4,0,0,0-.33,2.31v7.09h2.7v.44H73.42Z"/><path class="cls-2" d="M100.32,66.53a4.83,4.83,0,0,1-1,.54A3.7,3.7,0,0,1,98,67.3a3.05,3.05,0,0,1-2.15-.63,3.39,3.39,0,0,1-.91-1.79h-.07c-.08.19-.19.42-.34.7a2.68,2.68,0,0,1-.66.81,4,4,0,0,1-1.2.65,5.85,5.85,0,0,1-1.89.26A6.12,6.12,0,0,1,88.7,67a3.41,3.41,0,0,1-1.21-.73,2.1,2.1,0,0,1-.57-1,3.75,3.75,0,0,1-.14-1,3.07,3.07,0,0,1,.43-1.74,3.32,3.32,0,0,1,1.13-1,7.73,7.73,0,0,1,1.55-.63c.57-.17,1.14-.34,1.72-.53s1.24-.42,1.69-.59a3.1,3.1,0,0,0,1-.6,1.92,1.92,0,0,0,.51-.9A6.28,6.28,0,0,0,95,56.8a7.78,7.78,0,0,0-.1-1.34,2.68,2.68,0,0,0-.34-1,1.58,1.58,0,0,0-.71-.64,3,3,0,0,0-1.24-.21,3.56,3.56,0,0,0-1.69.35,1.23,1.23,0,0,0-.66,1.17,5.89,5.89,0,0,0,.09,1,4.92,4.92,0,0,1,.09.76,1,1,0,0,1-.31.73,1.22,1.22,0,0,1-.9.29c-.68,0-1.1-.12-1.27-.37a1.73,1.73,0,0,1-.24-1,2.83,2.83,0,0,1,.31-1.3,3.25,3.25,0,0,1,.91-1.1,4.6,4.6,0,0,1,1.52-.76,7,7,0,0,1,2.09-.28,6.87,6.87,0,0,1,2.39.36,4.13,4.13,0,0,1,1.54,1,3.36,3.36,0,0,1,.84,1.36,5,5,0,0,1,.25,1.6v7.71a1.84,1.84,0,0,0,.28,1.21,1,1,0,0,0,.8.31,2.36,2.36,0,0,0,.72-.12,2.84,2.84,0,0,0,.71-.37Zm-5.43-7.25h-.06c0,.27-.38.53-1,.8L91.49,61A3.44,3.44,0,0,0,90,62.14,3,3,0,0,0,89.44,64a5.39,5.39,0,0,0,.09,1,2.54,2.54,0,0,0,.35.88,1.76,1.76,0,0,0,.69.63,2.35,2.35,0,0,0,1.16.25,2.86,2.86,0,0,0,1.66-.43,2.71,2.71,0,0,0,1-1.09,4.65,4.65,0,0,0,.44-1.41,10,10,0,0,0,.1-1.38Z"/><path class="cls-2" d="M101.59,66.43H104V45h-2.38v-.43h5v21.9H109v.44h-7.43Z"/><path class="cls-2" d="M133.65,66.87h-5V63.74h-.07a10.09,10.09,0,0,1-.66,1.25,4.94,4.94,0,0,1-2.29,2,4.65,4.65,0,0,1-1.79.32,6,6,0,0,1-2-.28,4.7,4.7,0,0,1-1.21-.59c-.14-.1-.3-.23-.48-.38a2.6,2.6,0,0,1-.48-.64,4.43,4.43,0,0,1-.37-1,6.8,6.8,0,0,1-.16-1.56V54h-2.38v-.43h5v9.51a9.6,9.6,0,0,0,.11,1.48,3.16,3.16,0,0,0,.42,1.2,2.19,2.19,0,0,0,.8.8,2.5,2.5,0,0,0,1.3.3,3,3,0,0,0,1.41-.4,4.61,4.61,0,0,0,1.33-1.15,6.51,6.51,0,0,0,1-1.78,6.38,6.38,0,0,0,.4-2.34V54h-2.35v-.43h5V66.43h2.38Z"/><path class="cls-2" d="M134.34,75.11h2.38V54h-2.38v-.43h5v2.6h.07A4.69,4.69,0,0,1,140.92,54a4.3,4.3,0,0,1,2.77-.86,5.54,5.54,0,0,1,2.51.58,7,7,0,0,1,3.5,3.73,6.72,6.72,0,0,1,.53,2.66,6.9,6.9,0,0,1-.54,2.71,7.57,7.57,0,0,1-1.47,2.28,7.17,7.17,0,0,1-2.16,1.58,5.74,5.74,0,0,1-2.58.59,4.17,4.17,0,0,1-1.79-.35,4.35,4.35,0,0,1-1.19-.84,3.72,3.72,0,0,1-.71-1,5.37,5.37,0,0,1-.34-.82h-.06V75.11h2.38v.43h-7.43Zm12.79-15.34a19.45,19.45,0,0,0-.15-2.55,6.65,6.65,0,0,0-.55-1.94A2.79,2.79,0,0,0,145.35,54a3.31,3.31,0,0,0-1.78-.43,4,4,0,0,0-1.89.4,3.68,3.68,0,0,0-1.21,1,3.64,3.64,0,0,0-.54.93,6,6,0,0,0-.33,1.18,12.61,12.61,0,0,0-.17,1.56c0,.59,0,1.29,0,2.09a15.29,15.29,0,0,0,.15,2.11,6.38,6.38,0,0,0,.59,2,3.8,3.8,0,0,0,1.22,1.44,4.25,4.25,0,0,0,4.11.06A2.89,2.89,0,0,0,146.57,65,7.37,7.37,0,0,0,147,62.7C147.1,61.82,147.13,60.85,147.13,59.77Z"/><path class="cls-2" d="M38,85.6a2.22,2.22,0,0,0,1-1.19,4.26,4.26,0,0,0,.3-1.5,1.51,1.51,0,0,0-.47-1.15,1.77,1.77,0,0,0-1.26-.45,4.54,4.54,0,0,0-2.41.78A14.49,14.49,0,0,0,32.68,84a20.14,20.14,0,0,0-2.16,2.44c-.66.87-1.22,1.66-1.7,2.37a81.76,81.76,0,0,0-4.33,7.72q-2.11,4.24-4.09,8.78h-.25a20.61,20.61,0,0,0,.42-4.07,29.27,29.27,0,0,0-.21-3.51c-.14-1.15-.3-2.32-.46-3.5s-.32-2.31-.46-3.47a29.27,29.27,0,0,1-.21-3.51c0-.42,0-.84,0-1.25s0-.85,0-1.3h-.07c-.45,1-1,2.11-1.61,3.49S16.25,91,15.46,92.57s-1.67,3.06-2.62,4.57a32.46,32.46,0,0,1-3.05,4.09,16.13,16.13,0,0,1-3.38,3,6.78,6.78,0,0,1-3.68,1.13,4.22,4.22,0,0,1-.91-.1,4,4,0,0,1-.88-.32,1.86,1.86,0,0,1-.67-.57,1.37,1.37,0,0,1-.27-.85,1.24,1.24,0,0,1,.39-.94,1.33,1.33,0,0,1,1-.37,1,1,0,0,1,1.06,1.06,1.63,1.63,0,0,1-.09.52.48.48,0,0,1-.37.33c0,.12.14.26.35.43a1.63,1.63,0,0,0,1,.25,5.7,5.7,0,0,0,3.24-1.09,15.22,15.22,0,0,0,3.15-2.85,31.11,31.11,0,0,0,3-4.09q1.42-2.31,2.72-4.76t2.43-4.87q1.14-2.41,2-4.44c.05-.24.11-.51.19-.83a3.88,3.88,0,0,1,.38-.92,2.56,2.56,0,0,1,.62-.76,1.23,1.23,0,0,1,.86-.32,4.63,4.63,0,0,1-.28.72,4.77,4.77,0,0,0-.32.91A11.41,11.41,0,0,0,21,82.75a15,15,0,0,0-.1,2,20,20,0,0,0,.21,2.89c.14,1,.29,1.94.46,3s.32,2.06.46,3.15a27.07,27.07,0,0,1,.21,3.47,15.61,15.61,0,0,1-.14,2.12,17.73,17.73,0,0,1-.49,2.38l.07.06c.42-.94.9-2,1.45-3.16s1.11-2.35,1.71-3.53,1.23-2.33,1.86-3.47,1.24-2.13,1.81-3c.83-1.25,1.65-2.39,2.48-3.41a23.3,23.3,0,0,1,2.48-2.68,11.37,11.37,0,0,1,2.44-1.75,5.12,5.12,0,0,1,2.34-.62,2.77,2.77,0,0,1,1.93.66,2.11,2.11,0,0,1,.72,1.64,2.51,2.51,0,0,1-.26,1.17,4.08,4.08,0,0,1-.69,1,4.77,4.77,0,0,1-1,.77,5.58,5.58,0,0,1-1.06.49Z"/><path class="cls-2" d="M36.19,92.86,32.9,97.57c-.9,1.27-1.63,2.33-2.18,3.18a22.34,22.34,0,0,0-1.21,2,3,3,0,0,0-.37,1.21c0,.61.25.92.74.92a3.44,3.44,0,0,0,1.65-.52,13.4,13.4,0,0,0,2-1.33,25.74,25.74,0,0,0,2-1.83c.69-.69,1.33-1.37,1.93-2s1.13-1.32,1.59-2a12.59,12.59,0,0,0,1-1.54l.29.18c-.29.47-.67,1-1.15,1.7s-1,1.34-1.65,2-1.26,1.39-2,2.08a20.58,20.58,0,0,1-2.09,1.83,12.26,12.26,0,0,1-2.07,1.32,4.23,4.23,0,0,1-1.86.49,1.76,1.76,0,0,1-1.41-.53,1.72,1.72,0,0,1-.46-1.17,4.26,4.26,0,0,1,.33-1.57,15,15,0,0,1,1.08-2c.5-.8,1.14-1.78,1.93-2.92s1.74-2.56,2.85-4.23Zm2.05-6.59a1.08,1.08,0,0,1,.82.34,1.27,1.27,0,0,1,0,1.66,1.08,1.08,0,0,1-.82.34,1,1,0,0,1-.81-.34,1.24,1.24,0,0,1,0-1.66A1,1,0,0,1,38.24,86.27Z"/><path class="cls-2" d="M52.09,92.86q-2.13,2.86-4,5.84c-1.27,2-2.57,4-3.92,5.91a14.11,14.11,0,0,0,3.49-1.27,18.62,18.62,0,0,0,3.24-2.12,22.74,22.74,0,0,0,2.82-2.73,20.74,20.74,0,0,0,2.18-3l.14.21a20.18,20.18,0,0,1-3.42,4.43A22.21,22.21,0,0,1,49,103a16.5,16.5,0,0,1-3.12,1.54,11.15,11.15,0,0,1-2,.55,3.84,3.84,0,0,0-.71.92c-.36.54-.83,1.2-1.42,2a30.19,30.19,0,0,1-2.11,2.48,19.18,19.18,0,0,1-2.76,2.43,15.73,15.73,0,0,1-3.41,1.86,11,11,0,0,1-4,.74,9.87,9.87,0,0,1-2.37-.28,6.1,6.1,0,0,1-1.9-.82A4,4,0,0,1,24,113.08a3.25,3.25,0,0,1-.44-1.67,3.3,3.3,0,0,1,1.1-2.53,3.93,3.93,0,0,1,2.76-1,3.09,3.09,0,0,1,.58,0,2.73,2.73,0,0,1,.48.1v.29h-.28a2.44,2.44,0,0,0-2,.86,3.7,3.7,0,0,0-.68,2.32,3.54,3.54,0,0,0,.34,1.63,2.91,2.91,0,0,0,.92,1.1,3.94,3.94,0,0,0,1.36.62,7.16,7.16,0,0,0,4.77-.53,13.58,13.58,0,0,0,2.88-1.91,23.93,23.93,0,0,0,2.64-2.68c.84-1,1.63-2,2.37-3s1.42-2,2-2.9,1.15-1.73,1.63-2.39l-.07-.07c-.38.45-.8.9-1.26,1.36A13.66,13.66,0,0,1,41.57,104a8.2,8.2,0,0,1-1.63,1,4.36,4.36,0,0,1-1.77.37,2.52,2.52,0,0,1-1.17-.25,2.26,2.26,0,0,1-.81-.65,2.38,2.38,0,0,1-.46-.91,3.17,3.17,0,0,1-.14-1,6,6,0,0,1,.47-2.27A11.67,11.67,0,0,1,37.32,98a13.63,13.63,0,0,1,1.81-2.09,16.29,16.29,0,0,1,2.14-1.72A11.57,11.57,0,0,1,43.52,93a5.67,5.67,0,0,1,2.09-.45,2.58,2.58,0,0,1,2,.69,2.36,2.36,0,0,1,.62,1.62h.1l1.31-2ZM45.53,93A4.46,4.46,0,0,0,43,94a13.2,13.2,0,0,0-2.55,2.43,14.68,14.68,0,0,0-2,3.15,7.64,7.64,0,0,0-.78,3.19,1.86,1.86,0,0,0,.41,1.25,1.3,1.3,0,0,0,1,.48,2.93,2.93,0,0,0,1.29-.41,8.48,8.48,0,0,0,1.67-1.13,17.25,17.25,0,0,0,1.75-1.7,14.91,14.91,0,0,0,1.58-2.07,12.73,12.73,0,0,0,1.13-2.28A6.83,6.83,0,0,0,47,94.52a1.78,1.78,0,0,0-.33-1.06A1.34,1.34,0,0,0,45.53,93Z"/><path class="cls-2" d="M67.63,80.53,55.1,99.16l.07.07c.47-.59,1-1.27,1.66-2A22.42,22.42,0,0,1,58.9,95a12.47,12.47,0,0,1,2.36-1.74,5,5,0,0,1,2.47-.71,1.91,1.91,0,0,1,2.16,2.16,3,3,0,0,1-.4,1.35,14.48,14.48,0,0,1-1,1.65c-.41.57-.85,1.16-1.33,1.75s-.91,1.16-1.33,1.72a14.6,14.6,0,0,0-1,1.55,2.71,2.71,0,0,0-.41,1.23,1,1,0,0,0,.23.65.77.77,0,0,0,.62.27,3.82,3.82,0,0,0,1.79-.52A13.29,13.29,0,0,0,65,103q1-.84,2.07-1.86t1.89-2c.58-.67,1.1-1.31,1.56-1.91a12.79,12.79,0,0,0,1-1.47l.21.07a18.4,18.4,0,0,1-1.09,1.63c-.48.64-1,1.31-1.62,2s-1.25,1.41-1.94,2.11A26.84,26.84,0,0,1,65,103.46,11.76,11.76,0,0,1,63,104.81a4.38,4.38,0,0,1-1.92.51A2,2,0,0,1,59,103.2a3.68,3.68,0,0,1,.4-1.56,11.66,11.66,0,0,1,1-1.72c.41-.58.85-1.16,1.33-1.73L63,96.54a14.92,14.92,0,0,0,1-1.43A2.27,2.27,0,0,0,64.48,94a.87.87,0,0,0-.32-.78,1.38,1.38,0,0,0-.78-.21,3.83,3.83,0,0,0-2,.66,12.91,12.91,0,0,0-2.23,1.71,29.26,29.26,0,0,0-2.29,2.39c-.75.89-1.47,1.78-2.14,2.68S53.5,102.18,53,103s-.9,1.48-1.19,2.05H49.5q1.95-3,4-6.2l4.09-6.27q2-3.1,4-6.14t3.69-5.79Z"/><path class="cls-2" d="M77.76,88.75,75,92.86h4.67l-.21.42H74.68c-1,1.54-1.79,2.86-2.54,4s-1.37,2.08-1.87,2.9a20,20,0,0,0-1.15,2,3.58,3.58,0,0,0-.39,1.47,1,1,0,0,0,.46.94,2,2,0,0,0,1.06.27,5.35,5.35,0,0,0,2.81-1,20.8,20.8,0,0,0,3.07-2.39,37.6,37.6,0,0,0,2.9-3c.92-1.06,1.7-2,2.34-2.87l.21.15c-.8,1-1.68,2.08-2.64,3.2a34.72,34.72,0,0,1-3,3.08,18.35,18.35,0,0,1-3.07,2.32,5.74,5.74,0,0,1-2.92.92,2.82,2.82,0,0,1-1.89-.67,2.33,2.33,0,0,1-.8-1.88,4.39,4.39,0,0,1,.46-1.82A19.69,19.69,0,0,1,69,98.77c.5-.78,1.06-1.63,1.69-2.55s1.26-1.9,1.93-2.94H70.67l.22-.42h2l2.76-4.11Z"/><path class="cls-2" d="M102.4,89.14c.07.5.12.91.14,1.26s0,.7,0,1.08a10.24,10.24,0,0,1-.44,3A8.57,8.57,0,0,1,100.88,97a6.07,6.07,0,0,1-2,1.74,5.6,5.6,0,0,1-2.67.63,5.31,5.31,0,0,1-2.32-.48,4.93,4.93,0,0,1-1.7-1.27,5.48,5.48,0,0,1-1-1.84,7.05,7.05,0,0,1-.35-2.21,9.21,9.21,0,0,1,.6-3.19,13.06,13.06,0,0,1,1.7-3.15,16.26,16.26,0,0,1,2.67-2.87A18.49,18.49,0,0,1,99.3,82a20.49,20.49,0,0,1,4.25-1.59,19.45,19.45,0,0,1,4.84-.58,17.21,17.21,0,0,1,3.78.39,11.3,11.3,0,0,1,3,1.09,15.6,15.6,0,0,1,2.61-1.15,17.27,17.27,0,0,1,2.32-.55V80a15.66,15.66,0,0,0-2.2.51,9.24,9.24,0,0,0-2.19,1.08,7.51,7.51,0,0,1,1.74,1.93,4.82,4.82,0,0,1,.59,2.5,5,5,0,0,1-.6,2.44,6.64,6.64,0,0,1-1.56,1.9,9.42,9.42,0,0,1-2.16,1.33,10.74,10.74,0,0,1-2.41.74v.07a6.16,6.16,0,0,1,1.9.34,4.71,4.71,0,0,1,1.53.84,3.89,3.89,0,0,1,1,1.39,4.73,4.73,0,0,1,.37,2,6.71,6.71,0,0,1-.81,3.24,9.79,9.79,0,0,1-2.06,2.62,9.64,9.64,0,0,1-2.76,1.75,7.58,7.58,0,0,1-3,.64,5.45,5.45,0,0,1-3.24-.87,2.59,2.59,0,0,1-1.23-2.21,2.23,2.23,0,0,1,.56-1.52,1.85,1.85,0,0,1,1.48-.64,1.33,1.33,0,0,1,1,.43,1.1,1.1,0,0,0-.86.69,3.7,3.7,0,0,0-.25,1.47,2,2,0,0,0,.71,1.59,2.61,2.61,0,0,0,1.8.64,5.67,5.67,0,0,0,2.85-.69,6.28,6.28,0,0,0,2-1.83,8.09,8.09,0,0,0,1.22-2.58,11,11,0,0,0,.41-3,4.13,4.13,0,0,0-.39-1.89,3.17,3.17,0,0,0-1.07-1.22,4.09,4.09,0,0,0-1.57-.64,9.89,9.89,0,0,0-1.93-.18v-.42a7.58,7.58,0,0,0,2.88-.53,6.48,6.48,0,0,0,2.22-1.49,6.8,6.8,0,0,0,1.43-2.27,7.7,7.7,0,0,0,.52-2.83,4.22,4.22,0,0,0-.32-1.59,4.54,4.54,0,0,0-.89-1.38,18.28,18.28,0,0,0-3.2,3.78q-1.52,2.31-3,4.89c-1,1.73-2,3.45-3.08,5.17a34.53,34.53,0,0,1-3.4,4.68,17.05,17.05,0,0,1-4,3.39,9,9,0,0,1-4.81,1.31,4.83,4.83,0,0,1-2.91-.77A2.31,2.31,0,0,1,89.44,103a1.54,1.54,0,0,1,.41-1.12,1.37,1.37,0,0,1,1-.4,1.08,1.08,0,0,1,.9.37,1.45,1.45,0,0,1,.3.94,1.15,1.15,0,0,1-.33.83,1.18,1.18,0,0,1-.84.34,1.11,1.11,0,0,0,.36.6,2.66,2.66,0,0,0,.65.41,3.44,3.44,0,0,0,.76.21,6.22,6.22,0,0,0,.68.05,6.82,6.82,0,0,0,3.11-.67A9,9,0,0,0,99,102.58a20.79,20.79,0,0,0,2.34-3q1.16-1.78,2.5-4c.94-1.53,1.82-3,2.64-4.33s1.63-2.62,2.46-3.78a31.82,31.82,0,0,1,2.56-3.15,14.92,14.92,0,0,1,2.93-2.41,6.35,6.35,0,0,0-2.77-1.25,16.49,16.49,0,0,0-3.43-.34A17.25,17.25,0,0,0,102,81.37a17.82,17.82,0,0,0-5.14,2.94,14.55,14.55,0,0,0-3.49,4.17,10,10,0,0,0-1.29,4.87,8,8,0,0,0,.25,2,5.82,5.82,0,0,0,.76,1.8,4.25,4.25,0,0,0,1.29,1.31,3.24,3.24,0,0,0,1.85.52,5.12,5.12,0,0,0,2.4-.57,5.76,5.76,0,0,0,1.88-1.56,7.28,7.28,0,0,0,1.22-2.39,9.8,9.8,0,0,0,.44-3c0-.38,0-.75,0-1.12s-.06-.74-.11-1.11Z"/><path class="cls-2" d="M125.31,92.86l-4.5,6.55.07.07c.33-.4.75-.87,1.26-1.4s1.06-1.07,1.67-1.63,1.23-1.1,1.89-1.64a23.53,23.53,0,0,1,2-1.46,2.29,2.29,0,0,1,.39-.56,1.22,1.22,0,0,1,.85-.22l.69,0,.62.06A9.21,9.21,0,0,0,129,94.12a3.33,3.33,0,0,0-.57,1.89,1.85,1.85,0,0,0,.41,1.27,1.28,1.28,0,0,0,1,.46,2.72,2.72,0,0,0,1-.21,5.15,5.15,0,0,0,1-.53c.3-.21.6-.44.88-.67l.75-.64.21.14c-.24.24-.51.49-.82.76a8.67,8.67,0,0,1-1,.77,5.74,5.74,0,0,1-1.13.58,3.49,3.49,0,0,1-1.24.23,2.45,2.45,0,0,1-1.82-.69,2.6,2.6,0,0,1-.69-1.93,2.94,2.94,0,0,1,.39-1.52l-.08-.07a27.33,27.33,0,0,0-3.18,2.6,52.31,52.31,0,0,0-3.68,3.8,12.12,12.12,0,0,0-1.47,2.06A20.8,20.8,0,0,0,117.7,105h-2.3c1.27-2,2.55-4.05,3.82-6.06s2.58-4,3.93-6.12Z"/><path class="cls-2" d="M142.94,92.86h2.31q-1.32,1.85-2.52,3.57c-.8,1.16-1.51,2.23-2.14,3.21a28.32,28.32,0,0,0-1.5,2.58,4.26,4.26,0,0,0-.57,1.76c0,.61.32.92,1,.92a3.81,3.81,0,0,0,1.89-.73,16.39,16.39,0,0,0,2.5-2,37.31,37.31,0,0,0,2.76-3,43.56,43.56,0,0,0,2.69-3.62l.21.07c-.64,1-1.39,2-2.25,3.14a34.4,34.4,0,0,1-2.71,3.13,18.62,18.62,0,0,1-2.83,2.43,4.74,4.74,0,0,1-2.65,1,2,2,0,0,1-1.51-.51,1.72,1.72,0,0,1-.48-1.22,3.3,3.3,0,0,1,.16-1c.11-.32.22-.64.34-1l-.07,0c-.31.33-.69.72-1.15,1.15a13.72,13.72,0,0,1-1.49,1.23,10.5,10.5,0,0,1-1.65,1,3.88,3.88,0,0,1-1.63.39,2,2,0,0,1-1.84-.81,3.35,3.35,0,0,1-.53-1.84,7.05,7.05,0,0,1,.92-3.21,16,16,0,0,1,2.34-3.29,14.56,14.56,0,0,1,3.08-2.57,6.09,6.09,0,0,1,3.15-1,3.58,3.58,0,0,1,1.24.2,2.7,2.7,0,0,1,.89.53,2.89,2.89,0,0,1,.55.76,5.17,5.17,0,0,1,.3.89h.07Zm-11.57,9.91a2.06,2.06,0,0,0,.33,1.26,1.11,1.11,0,0,0,.94.44,3,3,0,0,0,1.42-.44,10,10,0,0,0,1.7-1.19,17.47,17.47,0,0,0,1.75-1.71,14.16,14.16,0,0,0,1.54-2.08,13.17,13.17,0,0,0,1.1-2.23,6.17,6.17,0,0,0,.42-2.16A1.52,1.52,0,0,0,139,93a4.27,4.27,0,0,0-2.37.92,12.37,12.37,0,0,0-2.48,2.35,14.91,14.91,0,0,0-2,3.17A8,8,0,0,0,131.37,102.77Z"/></g></g></g></g></svg>